<svg width="120" height="120" viewBox="0 0 120 120" fill="none" xmlns="http://www.w3.org/2000/svg" aria-labelledby="logoTitle logoDesc" role="img">
  <title id="logoTitle">TaroVerse logo</title>
  <desc id="logoDesc">A circular mystic logo with crescent, aura rays, and delicate detail for TaroVerse.</desc>
  <defs>
    <linearGradient id="auraGradient" x1="15" y1="15" x2="105" y2="105" gradientUnits="userSpaceOnUse">
      <stop offset="0%" stop-color="#f7e4ff" />
      <stop offset="60%" stop-color="#d8b1ff" />
      <stop offset="100%" stop-color="#8a5fd4" />
    </linearGradient>
    <linearGradient id="glowGradient" x1="20" y1="20" x2="100" y2="100" gradientUnits="userSpaceOnUse">
      <stop offset="0%" stop-color="rgba(255, 255, 255, 0.7)" />
      <stop offset="100%" stop-color="rgba(255, 255, 255, 0)" />
    </linearGradient>
  </defs>
  <circle cx="60" cy="60" r="58" stroke="url(#auraGradient)" stroke-width="4" fill="rgba(17, 17, 27, 0.85)" />
  <circle cx="60" cy="60" r="36" fill="rgba(255, 255, 255, 0.04)" />
  <path d="M60 24C68.8366 24 76 31.1634 76 40C76 48.8366 68.8366 56 60 56C51.1634 56 44 48.8366 44 40C44 31.1634 51.1634 24 60 24Z" fill="#f7e4ff" opacity="0.92" />
  <path d="M60 30C66.6274 30 72 35.3726 72 42C72 48.6274 66.6274 54 60 54C53.3726 54 48 48.6274 48 42C48 35.3726 53.3726 30 60 30Z" fill="rgba(255,255,255,0.22)" />
  <path d="M60 90C68.8366 90 76 82.8366 76 74C76 65.1634 68.8366 58 60 58C51.1634 58 44 65.1634 44 74C44 82.8366 51.1634 90 60 90Z" fill="rgba(255,255,255,0.06)" />
  <path d="M58 36L60 56L62 36" stroke="#f7e4ff" stroke-width="4" stroke-linecap="round" stroke-linejoin="round" />
  <path d="M56 36L60 42L64 36" stroke="#f7e4ff" stroke-width="3" stroke-linecap="round" />
  <path d="M34 54C42 48 51 44 60 44C69 44 78 48 86 54" stroke="#f7e4ff" stroke-width="2" stroke-linecap="round" opacity="0.8" />
  <path d="M35 72C45 76 55 78 60 78C65 78 75 76 85 72" stroke="#f7e4ff" stroke-width="2" stroke-linecap="round" opacity="0.6" />
  <path d="M60 14V8" stroke="#f3d1ff" stroke-width="3" stroke-linecap="round" />
  <path d="M60 112V106" stroke="#f3d1ff" stroke-width="3" stroke-linecap="round" />
  <path d="M14 60H8" stroke="#f3d1ff" stroke-width="3" stroke-linecap="round" />
  <path d="M112 60H106" stroke="#f3d1ff" stroke-width="3" stroke-linecap="round" />
  <circle cx="60" cy="60" r="4" fill="#ffffff" opacity="0.9" />
  <circle cx="60" cy="60" r="1.5" fill="#8a5fd4" />
  <path d="M52 76C52 76 56 64 60 56C64 64 68 76 68 76" stroke="#f7e4ff" stroke-width="3" stroke-linecap="round" fill="none" opacity="0.86" />
  <path d="M42 60C46 58 50 57.5 54 58" stroke="#f7e4ff" stroke-width="2.5" stroke-linecap="round" opacity="0.8" />
  <path d="M66 60C62 58 58 57.5 54 58" stroke="#f7e4ff" stroke-width="2.5" stroke-linecap="round" opacity="0.8" />
  <path d="M35 45L44 38" stroke="#f3d1ff" stroke-width="2" stroke-linecap="round" opacity="0.9" />
  <path d="M85 45L76 38" stroke="#f3d1ff" stroke-width="2" stroke-linecap="round" opacity="0.9" />
  <circle cx="87" cy="32" r="3" fill="#f7e4ff" opacity="0.92" />
  <circle cx="33" cy="88" r="2.2" fill="#f7e4ff" opacity="0.85" />
  <circle cx="28" cy="34" r="2" fill="#f7e4ff" opacity="0.8" />
  <circle cx="92" cy="78" r="2.2" fill="#f7e4ff" opacity="0.8" />
  <circle cx="60" cy="12" r="1.8" fill="#f3d1ff" opacity="0.9" />
</svg>
